<svg width="96" height="96" xmlns="http://www.w3.org/2000/svg" xmlns:xlink="http://www.w3.org/1999/xlink" xml:space="preserve" overflow="hidden"><g transform="translate(-191 -425)"><path d="M205 501 273 501 273 507 205 507Z" fill="#11A311"/><path d="M205 439 213 439 213 497 205 497Z" fill="#11A311"/><path d="M255 489 273 489 273 497 255 497Z" fill="#11A311"/><path d="M255 455 273 455 273 485 255 485Z" fill="#11A311"/><path d="M255 443 273 443 273 451 255 451Z" fill="#11A311"/><path d="M243 461C241.9 461 241 460.1 241 459 241 457.9 241.9 457 243 457 244.1 457 245 457.9 245 459 245 460.1 244.1 461 243 461ZM243 493C241.9 493 241 492.1 241 491 241 489.9 241.9 489 243 489 244.1 489 245 489.9 245 491 245 492.1 244.1 493 243 493ZM251 453 235 453 235 497 251 497 251 453Z" fill="#11A311"/><path d="M227 455 221 455 221 449 227 449 227 455ZM231 445 217 445 217 497 231 497 231 445Z" fill="#11A311"/></g></svg>