<svg width="96" height="96" xmlns="http://www.w3.org/2000/svg" xmlns:xlink="http://www.w3.org/1999/xlink" xml:space="preserve" overflow="hidden"><g transform="translate(-932 -365)"><path d="M1017.5 440.6 1005 428.1C1003.3 426.4 1001 425.8 998.8 426.2L994.4 421.8C998.3 416.8 1000.6 410.4 1000.6 403.6 1000.6 387.1 987.1 373.6 970.6 373.6 954.1 373.6 940.6 387.1 940.6 403.6 940.6 420.1 954.1 433.6 970.6 433.6 977.4 433.6 983.7 431.3 988.8 427.4L993.2 431.8C992.8 434 993.4 436.3 995.1 438L1007.6 450.5C1009 451.9 1010.8 452.6 1012.6 452.6 1014.4 452.6 1016.2 451.9 1017.6 450.5 1020.2 447.7 1020.2 443.3 1017.5 440.6ZM970.5 427.5C957.3 427.5 946.5 416.7 946.5 403.5 946.5 390.3 957.3 379.5 970.5 379.5 983.7 379.5 994.5 390.3 994.5 403.5 994.5 416.7 983.7 427.5 970.5 427.5Z" fill="#11A311"/></g></svg>