<svg width="96" height="96" xmlns="http://www.w3.org/2000/svg" xmlns:xlink="http://www.w3.org/1999/xlink" xml:space="preserve" overflow="hidden"><g transform="translate(-102 -103)"><path d="M125 117 175 117 175 185 125 185 125 117ZM119 191 181 191 181 111 119 111 119 191Z" fill="#11A311"/><path d="M152 126 169 126 169 130 152 130Z" fill="#11A311"/><path d="M152 142 169 142 169 146 152 146Z" fill="#11A311"/><path d="M152 174 169 174 169 178 152 178Z" fill="#11A311"/><path d="M152 158 169 158 169 162 152 162Z" fill="#11A311"/><path d="M145.8 123.8 143 121 136.4 127.6 133.8 125 131 127.8 136.4 133.2Z" fill="#11A311"/><path d="M145.8 139.8 143 137 136.4 143.6 133.8 141 131 143.8 136.4 149.2Z" fill="#11A311"/><path d="M145.8 155.8 143 153 136.4 159.6 133.8 157 131 159.8 136.4 165.2Z" fill="#11A311"/><path d="M145.8 171.6 143 168.8 136.4 175.4 133.8 172.8 131 175.6 136.4 181Z" fill="#11A311"/></g></svg>