<svg width="96" height="96" xmlns="http://www.w3.org/2000/svg" xmlns:xlink="http://www.w3.org/1999/xlink" xml:space="preserve" overflow="hidden"><g transform="translate(-616 -115)"><path d="M696 135C696.003 131.134 692.872 127.997 689.006 127.994 685.14 127.991 682.003 131.122 682 134.988 681.998 137.358 683.195 139.567 685.18 140.86L680 156 680 156C678.57 155.998 677.174 156.435 676 157.25L665.56 149.42C666.899 145.793 665.044 141.768 661.417 140.429 657.79 139.09 653.765 140.945 652.426 144.572 651.309 147.598 652.405 150.996 655.08 152.8L648.41 174 648 174C644.134 173.991 640.993 177.117 640.983 180.983 640.974 184.849 644.101 187.991 647.967 188 651.833 188.009 654.974 184.883 654.983 181.017 654.989 178.802 653.945 176.715 652.17 175.39L658.9 154 659 154C660.499 153.997 661.957 153.514 663.16 152.62L673.51 160.37C673.177 161.207 673.004 162.099 673 163 672.998 166.866 676.131 170.001 679.997 170.003 683.863 170.004 686.998 166.871 687 163.005 687.001 160.646 685.813 158.444 683.84 157.15L689 142C692.866 142 696 138.866 696 135Z" fill="#11A311"/><path d="M636 128 630 128 630 198 699 198 699 192 636 192 636 128Z" fill="#11A311"/></g></svg>