<svg width="96" height="96" xmlns="http://www.w3.org/2000/svg" xmlns:xlink="http://www.w3.org/1999/xlink" xml:space="preserve" overflow="hidden"><g transform="translate(-739 -461)"><path d="M762 481 773 481 773 487 801 487 801 481 812 481 812 543 762 543 762 481ZM787.1 473C788.7 473 790 474.4 790 476 790 477.7 788.7 479 787 479 785.3 479 784 477.7 784 476 784 474.3 785.3 473 787.1 473ZM756 479 756 545C756 547.2 757.8 549 760 549L814 549C816.2 549 818 547.2 818 545L818 479C818 476.8 816.2 475 814 475L797 475 797 473C797 470.8 795.2 469 793 469L781 469C778.8 469 777 470.8 777 473L777 475 760 475C757.8 475 756 476.8 756 479Z" fill="#11A311"/><path d="M768 495 785 495 785 499 768 499Z" fill="#11A311"/><path d="M768 507 785 507 785 511 768 511Z" fill="#11A311"/><path d="M768 519 785 519 785 523 768 523Z" fill="#11A311"/><path d="M768 531 785 531 785 535 768 535Z" fill="#11A311"/><path d="M796.5 517.5 803.5 517.5 803.5 524.5 796.5 524.5Z" fill="#11A311"/><path d="M796.5 529.5 803.5 529.5 803.5 536.5 796.5 536.5Z" fill="#11A311"/><path d="M791.9 496.8 794 494.7 796.6 497.3 803.2 490.7 805.3 492.8 796.6 501.5Z" fill="#11A311"/><path d="M791.9 508.8 794 506.7 796.6 509.3 803.2 502.7 805.3 504.8 796.6 513.5Z" fill="#11A311"/></g></svg>