<svg width="96" height="96" xmlns="http://www.w3.org/2000/svg" xmlns:xlink="http://www.w3.org/1999/xlink" xml:space="preserve" overflow="hidden"><g transform="translate(-541 -433)"><path d="M564 515 564 447 589 447 589 468 614 468 614 515 564 515ZM595 449.5 607.5 462 595 462 595 449.5ZM595 441 558 441 558 521 620 521 620 463 595 441Z" fill="#11A311"/><path d="M570 478 608 478 608 482 570 482Z" fill="#11A311"/><path d="M570 470 583 470 583 474 570 474Z" fill="#11A311"/><path d="M570 486 608 486 608 490 570 490Z" fill="#11A311"/><path d="M570 494 608 494 608 498 570 498Z" fill="#11A311"/><path d="M570 502 608 502 608 506 570 506Z" fill="#11A311"/></g></svg>