<svg width="96" height="96" xmlns="http://www.w3.org/2000/svg" xmlns:xlink="http://www.w3.org/1999/xlink" xml:space="preserve" overflow="hidden"><g transform="translate(-616 -287)"><path d="M655.5 331.6C655.5 336.571 651.471 340.6 646.5 340.6 641.529 340.6 637.5 336.571 637.5 331.6 637.5 326.629 641.529 322.6 646.5 322.6 651.471 322.6 655.5 326.629 655.5 331.6Z" fill="#11A311"/><path d="M688.5 375 688.5 366C688.537 364.575 687.862 363.225 686.7 362.4 684.11 360.372 681.105 358.939 677.9 358.2 675.497 357.478 673.009 357.074 670.5 357 667.985 357.008 665.488 357.413 663.1 358.2 659.94 359.065 656.96 360.487 654.3 362.4 653.172 363.254 652.506 364.585 652.5 366L652.5 375Z" fill="#11A311"/><path d="M679.5 345.6C679.5 350.571 675.471 354.6 670.5 354.6 665.529 354.6 661.5 350.571 661.5 345.6 661.5 340.629 665.529 336.6 670.5 336.6 675.471 336.6 679.5 340.629 679.5 345.6Z" fill="#11A311"/><path d="M651.9 359.2 651.9 359.2C654.708 357.196 657.812 355.644 661.1 354.6 658.826 352.23 657.539 349.084 657.5 345.8L657.5 345.4C656.332 344.91 655.128 344.509 653.9 344.2 651.497 343.478 649.009 343.074 646.5 343 643.985 343.008 641.488 343.413 639.1 344.2 635.972 345.15 633.005 346.565 630.3 348.4 629.138 349.225 628.463 350.575 628.5 352L628.5 361 650.1 361C650.596 360.304 651.204 359.696 651.9 359.2Z" fill="#11A311"/><path d="M697.35 295 659.58 295C658.424 295.011 657.494 295.954 657.5 297.11L657.5 322.86C657.478 324.02 658.4 324.978 659.56 325 659.566 325 659.573 325 659.58 325L665.58 325 665.58 333.44 673.87 325 697.35 325C698.508 324.989 699.44 324.048 699.44 322.89L699.44 297.11C699.44 295.952 698.508 295.011 697.35 295ZM678.29 321.25C677.064 321.25 676.07 320.256 676.07 319.03 676.07 317.804 677.064 316.81 678.29 316.81 679.505 316.81 680.494 317.786 680.51 319 680.532 320.22 679.561 321.228 678.34 321.25 678.324 321.25 678.307 321.25 678.29 321.25ZM679.72 312.1 679.72 315.25 676.87 315.25 676.87 309.36 678.29 309.36C680.77 309.36 682.37 307.91 682.37 305.68 682.409 303.471 680.65 301.649 678.441 301.61 678.391 301.609 678.341 301.609 678.29 301.61 676.233 301.419 674.411 302.931 674.22 304.988 674.199 305.218 674.199 305.45 674.22 305.68L674.22 305.93 671.37 305.93 671.37 305.68C671.154 302.069 673.906 298.967 677.517 298.751 677.775 298.735 678.033 298.735 678.29 298.75 682.073 298.706 685.176 301.736 685.22 305.519 685.221 305.573 685.221 305.626 685.22 305.68 685.317 308.918 682.935 311.699 679.72 312.1Z" fill="#11A311"/></g></svg>