<svg width="96" height="96" xmlns="http://www.w3.org/2000/svg" xmlns:xlink="http://www.w3.org/1999/xlink" xml:space="preserve" overflow="hidden"><g transform="translate(-353 -115)"><path d="M437.006 128.996 365.006 128.996C362.799 129.003 361.012 130.79 361.006 132.996L361.006 180.996C361.012 183.203 362.799 184.99 365.006 184.996L393.006 184.996 393.006 190.996 383.006 190.996 383.006 196.996 419.006 196.996 419.006 190.996 409.006 190.996 409.006 184.996 437.006 184.996C439.212 184.99 440.999 183.203 441.006 180.996L441.006 132.996C440.999 130.79 439.212 129.003 437.006 128.996ZM435.006 178.996 367.006 178.996 367.006 134.996 435.006 134.996Z" fill="#11A311"/><path d="M377.177 168.329C380.638 168.218 390.402 168.429 398.336 173.612 398.71 173.86 399.148 173.993 399.597 173.996L402.427 173.996C402.857 173.994 403.278 173.871 403.642 173.641 411.962 168.457 421.423 168.22 424.814 168.327 425.442 168.347 425.968 167.854 425.989 167.226 425.99 167.177 425.989 167.129 425.984 167.081L424.27 148.578C424.217 147.989 423.722 147.539 423.131 147.542 422.846 147.544 422.498 147.553 422.108 147.568L421.81 144.394 420.966 144.333C420.085 144.295 419.203 144.32 418.326 144.406L418.057 141.286 417.304 141.15C411.306 140.408 405.299 142.451 400.996 146.694 396.694 142.451 390.687 140.409 384.689 141.15L383.936 141.286 383.667 144.406C382.79 144.32 381.908 144.295 381.027 144.333L380.182 144.393 379.885 147.568C379.495 147.553 379.147 147.544 378.862 147.542 378.271 147.539 377.776 147.989 377.723 148.578L376.009 167.083C375.949 167.708 376.407 168.264 377.032 168.324 377.081 168.329 377.129 168.33 377.177 168.329ZM401.997 148.532C405.684 144.687 410.884 142.672 416.199 143.028L417.749 160.983C411.942 162.047 406.513 164.606 401.997 168.408ZM401.997 171.155C408.865 164.127 418.843 162.831 418.945 162.818L419.904 162.701 418.499 146.412C419.097 146.357 419.606 146.329 419.982 146.321L421.679 164.444C414.531 164.644 407.635 167.124 401.997 171.521ZM385.793 143.035C391.103 142.705 396.293 144.714 399.997 148.534L399.997 168.409C395.481 164.607 390.051 162.047 384.244 160.983ZM382.012 146.318C382.388 146.326 382.896 146.353 383.495 146.407L382.089 162.703 383.048 162.818C383.15 162.831 393.114 164.109 399.997 171.156L399.997 171.522C394.359 167.124 387.462 164.644 380.314 164.444Z" fill="#11A311"/><path d="M405.006 157.438 405.006 159.89C407.707 157.931 410.7 156.413 413.876 155.391L413.719 153.339C410.637 154.292 407.704 155.671 405.006 157.438Z" fill="#11A311"/><path d="M413.313 148.049C410.378 148.993 407.584 150.327 405.006 152.017L405.006 154.469C407.589 152.592 410.444 151.122 413.471 150.107Z" fill="#11A311"/></g></svg>